<svg width="80" height="72" viewBox="0 0 80 72" fill="none" xmlns="http://www.w3.org/2000/svg">
<path d="M71.3333 12.5833H61.2048L50.6024 1.98092C50.2393 1.6165 49.8077 1.3275 49.3325 1.13055C48.8573 0.933595 48.3478 0.832586 47.8333 0.833332H32.1667C31.6522 0.832586 31.1428 0.933595 30.6675 1.13055C30.1923 1.3275 29.7607 1.6165 29.3976 1.98092L18.7952 12.5833H8.66668C4.34659 12.5833 0.833344 16.0966 0.833344 20.4167V63.5C0.833344 67.8201 4.34659 71.3333 8.66668 71.3333H71.3333C75.6534 71.3333 79.1667 67.8201 79.1667 63.5V20.4167C79.1667 16.0966 75.6534 12.5833 71.3333 12.5833ZM40 59.5833C29.3858 59.5833 20.4167 50.6142 20.4167 40C20.4167 29.3858 29.3858 20.4167 40 20.4167C50.6142 20.4167 59.5833 29.3858 59.5833 40C59.5833 50.6142 50.6142 59.5833 40 59.5833Z" fill="#F4F5FE"/>
</svg>
