<svg width="94" height="78" viewBox="0 0 94 78" fill="none" xmlns="http://www.w3.org/2000/svg">
<path d="M64.0909 0.545471C64.0909 0.545471 61.1342 0.861653 59.8182 4.8182L55.5455 21.9091L72.6364 34.7273H85.4546C94 34.7273 94 26.1818 94 26.1818L81.1818 13.3637C76.9091 9.09093 72.6364 9.09093 68.3636 9.09093V4.8182C68.3636 4.8182 68.3636 0.545471 64.0909 0.545471ZM21.3636 9.09093C21.3636 9.09093 18.3471 9.03111 15.1853 10.612C12.0235 12.1929 8.54545 16.2093 8.54545 21.9091V39C8.54545 47.5455 8.54545 51.8182 4.27273 51.8182C4.27273 51.8182 0 51.8182 0 56.0909V73.1818C0 73.1818 0 77.4546 4.27273 77.4546C8.54545 77.4546 8.54545 73.1818 8.54545 73.1818V60.3637C11.5705 60.3637 14.4418 59.1929 17.0909 57.8086V73.1818C17.0909 73.1818 17.0909 77.4546 21.3636 77.4546C25.6364 77.4546 25.6364 73.1818 25.6364 73.1818V51.8182H51.2727L56.9469 68.8408C59.8182 77.4546 64.0909 77.4546 64.0909 77.4546H68.3636C68.3636 77.4546 72.6364 77.4546 72.6364 73.1818C72.6364 68.9091 68.3636 68.9091 68.3636 68.9091V47.5455C68.3636 39.94 62.9629 36.8209 59.8182 34.7273L46.9829 26.1818H17.0909V21.9091C17.0909 19.0635 17.8771 18.8157 18.9965 18.2517C20.1075 17.6962 21.3636 17.6364 21.3636 17.6364C27.1404 17.7218 27.1404 9.00547 21.3636 9.09093Z" fill="#E21B41"/>
</svg>
