<svg width="100" height="100" viewBox="0 0 100 100" fill="none" xmlns="http://www.w3.org/2000/svg">
<path d="M83.3333 60.4167C83.3333 60.4167 73.75 83.3333 50 83.3333C26.25 83.3333 16.6666 60.4167 16.6666 60.4167C16.6666 60.4167 33.75 64.5833 49.5833 64.5833C65.4166 64.5833 83.3333 60.4167 83.3333 60.4167Z" fill="#E21B41"/>
<path d="M88.75 35.4167C71.25 30 57.5 16.6667 50 16.6667C42.5 16.6667 28.75 30 11.25 35.4167C8.33338 36.25 7.08337 39.5833 8.75004 42.0833C12.5 47.0833 16.6667 47.5 16.6667 53.3333C16.6667 53.3333 33.3334 57.5 50 57.5C66.6667 57.5 83.3334 53.3333 83.3334 53.3333C83.3334 47.5 87.5 47.0833 90.8334 41.6667C92.5 39.5833 91.25 36.25 88.75 35.4167ZM50 50C45.4167 50 41.6667 42.0833 41.6667 37.5C41.6667 37.5 45.4167 33.3333 50 33.3333C54.5834 33.3333 58.3334 37.5 58.3334 37.5C58.3334 42.0833 54.5834 50 50 50Z" fill="#E21B41"/>
</svg>
