<svg width="42" height="42" viewBox="0 0 42 42" fill="none" xmlns="http://www.w3.org/2000/svg">
<path d="M4.24301 29.7967C6.07611 33.5028 9.0491 36.5237 12.7255 38.4157C16.3756 40.2898 20.5372 40.9227 24.5793 40.2183C28.634 39.5054 32.3488 37.4986 35.1678 34.4983C38.013 31.4697 39.8244 27.6169 40.3418 23.4938C40.8672 19.3614 40.0757 15.1686 38.0798 11.5122C36.1028 7.88414 33.0132 4.98669 29.2658 3.24634C25.5428 1.52203 21.3589 1.05952 17.3492 1.92901C13.3408 2.79784 10.054 4.77384 7.33918 7.89818C7.00985 8.24484 5.74451 9.64451 4.69585 11.757" stroke="#999999" stroke-width="3" stroke-linecap="round" stroke-linejoin="round"/>
<path d="M14.3505 11.9282L3.4305 13.8933L1.5 2.77832" stroke="#999999" stroke-width="3" stroke-linecap="round" stroke-linejoin="round"/>
</svg>
