<svg width="42" height="42" viewBox="0 0 42 42" fill="none" xmlns="http://www.w3.org/2000/svg">
<path d="M37.757 29.7967C35.9239 33.5028 32.9509 36.5237 29.2745 38.4157C25.6244 40.2898 21.4628 40.9227 17.4207 40.2183C13.366 39.5055 9.65112 37.4987 6.83217 34.4983C3.98706 31.4697 2.17558 27.6169 1.65817 23.4938C1.13265 19.3614 1.92421 15.1686 3.92017 11.5122C5.89779 7.8838 8.98819 4.98631 12.7363 3.24634C16.4593 1.52203 20.6433 1.05952 24.653 1.92901C28.6613 2.79784 31.946 4.77384 34.663 7.89818C34.9902 8.24484 36.2555 9.64451 37.3063 11.757" stroke="#999999" stroke-width="3" stroke-linecap="round" stroke-linejoin="round"/>
<path d="M27.6495 11.9282L38.5695 13.8933L40.5 2.77832" stroke="#999999" stroke-width="2" stroke-linecap="round" stroke-linejoin="round"/>
</svg>
