<svg width="94" height="94" viewBox="0 0 94 94" fill="none" xmlns="http://www.w3.org/2000/svg">
<path d="M47 35.25C40.6315 35.25 35.25 40.6315 35.25 47C35.25 53.3685 40.6315 58.75 47 58.75C53.3685 58.75 58.75 53.3685 58.75 47C58.75 40.6315 53.3685 35.25 47 35.25Z" fill="#F4F5FE"/>
<path d="M78.3333 19.5833H68.2048L57.6024 8.98092C57.2393 8.6165 56.8077 8.3275 56.3325 8.13055C55.8573 7.9336 55.3478 7.83259 54.8333 7.83333H39.1667C38.6522 7.83259 38.1428 7.9336 37.6675 8.13055C37.1923 8.3275 36.7607 8.6165 36.3976 8.98092L25.7952 19.5833H15.6667C11.3466 19.5833 7.83334 23.0966 7.83334 27.4167V70.5C7.83334 74.8201 11.3466 78.3333 15.6667 78.3333H78.3333C82.6534 78.3333 86.1667 74.8201 86.1667 70.5V27.4167C86.1667 23.0966 82.6534 19.5833 78.3333 19.5833ZM47 66.5833C36.3858 66.5833 27.4167 57.6142 27.4167 47C27.4167 36.3858 36.3858 27.4167 47 27.4167C57.6142 27.4167 66.5833 36.3858 66.5833 47C66.5833 57.6142 57.6142 66.5833 47 66.5833Z" fill="#F4F5FE"/>
</svg>
