<svg width="102" height="76" viewBox="0 0 102 76" fill="none" xmlns="http://www.w3.org/2000/svg">
<path d="M88.5159 12.7687C88.4314 12.5195 88.3428 12.1227 88.2373 11.6753C87.5407 8.84255 86.8863 6.16612 84.2985 5.17826L72.0136 0.504938C69.6327 -0.398421 66.9645 -0.0734882 64.8622 1.39148L64.1023 2.07122C63.4859 2.7763 62.65 3.65848 62.0547 4.22424H39.4187C38.9163 3.69648 38.245 2.91976 37.6836 2.2232L36.8056 1.39999C34.7033 -0.0691348 32.0268 -0.40693 29.6585 0.504938L17.3607 5.17826C14.7856 6.15761 14.1397 8.80456 13.4515 11.612C13.346 12.0384 13.2573 12.4267 13.291 12.4267C13.291 12.4267 13.2951 12.4267 13.2995 12.4225C9.11178 20.68 -10.8058 62.4823 7.84095 74.8222C10.5091 76.5867 14.0594 76.3081 16.4869 74.1383L31.1021 61.0343C32.3897 59.8777 34.0277 59.2401 35.7079 59.2401H65.9557C67.636 59.2401 69.2697 59.8775 70.5615 61.0343L85.1768 74.1383C86.5531 75.3709 88.267 76 89.9809 76C91.3572 76 92.7291 75.5906 93.9155 74.7547C110.371 63.2085 95.5449 27.3754 88.5159 12.7687ZM67.5726 16.8889C69.903 16.8889 71.7942 18.7801 71.7942 21.1104C71.7942 23.4408 69.903 25.332 67.5726 25.332C65.2423 25.332 63.3511 23.4408 63.3511 21.1104C63.3511 18.7801 65.2423 16.8889 67.5726 16.8889ZM42.243 37.997H38.0214V42.2185C38.0214 44.5489 36.1344 46.4401 33.7999 46.4401C31.4654 46.4401 29.5783 44.5489 29.5783 42.2185V37.997H25.3568C23.0223 37.997 21.1353 36.1058 21.1353 33.7755C21.1353 31.4451 23.0223 29.5539 25.3568 29.5539H29.5783V25.3324C29.5783 23.002 31.4654 21.1108 33.7999 21.1108C36.1344 21.1108 38.0214 23.002 38.0214 25.3324V29.5539H42.243C44.5775 29.5539 46.4645 31.4451 46.4645 33.7755C46.4645 36.1058 44.5775 37.997 42.243 37.997ZM59.1294 33.7755C56.799 33.7755 54.9078 31.8842 54.9078 29.5539C54.9078 27.2236 56.799 25.3324 59.1294 25.3324C61.4597 25.3324 63.3509 27.2236 63.3509 29.5539C63.3509 31.8842 61.4597 33.7755 59.1294 33.7755ZM67.5726 42.2185C65.2423 42.2185 63.3511 40.3273 63.3511 37.997C63.3511 35.6667 65.2423 33.7755 67.5726 33.7755C69.903 33.7755 71.7942 35.6667 71.7942 37.997C71.7942 40.3273 69.903 42.2185 67.5726 42.2185ZM76.0157 33.7755C73.6854 33.7755 71.7942 31.8842 71.7942 29.5539C71.7942 27.2236 73.6854 25.3324 76.0157 25.3324C78.3461 25.3324 80.2373 27.2236 80.2373 29.5539C80.2373 31.8842 78.3461 33.7755 76.0157 33.7755Z" fill="#C1C3D3"/>
</svg>
