<svg width="46" height="37" viewBox="0 0 46 37" fill="none" xmlns="http://www.w3.org/2000/svg">
<path fill-rule="evenodd" clip-rule="evenodd" d="M0.25 2.375C0.25 1.94402 0.421205 1.5307 0.725951 1.22595C1.0307 0.921205 1.44402 0.75 1.875 0.75H44.125C44.556 0.75 44.9693 0.921205 45.274 1.22595C45.5788 1.5307 45.75 1.94402 45.75 2.375C45.75 2.80598 45.5788 3.2193 45.274 3.52405C44.9693 3.82879 44.556 4 44.125 4H1.875C1.44402 4 1.0307 3.82879 0.725951 3.52405C0.421205 3.2193 0.25 2.80598 0.25 2.375ZM23 10.5C23.431 10.5 23.8443 10.6712 24.149 10.976C24.4538 11.2807 24.625 11.694 24.625 12.125V30.9523L31.5995 23.9745C31.9046 23.6694 32.3185 23.4979 32.75 23.4979C33.1815 23.4979 33.5954 23.6694 33.9005 23.9745C34.2056 24.2796 34.3771 24.6935 34.3771 25.125C34.3771 25.5565 34.2056 25.9704 33.9005 26.2755L24.1505 36.0255C23.9996 36.1768 23.8202 36.2969 23.6228 36.3788C23.4254 36.4607 23.2137 36.5029 23 36.5029C22.7863 36.5029 22.5746 36.4607 22.3772 36.3788C22.1798 36.2969 22.0004 36.1768 21.8495 36.0255L12.0995 26.2755C11.7944 25.9704 11.6229 25.5565 11.6229 25.125C11.6229 24.6935 11.7944 24.2796 12.0995 23.9745C12.4046 23.6694 12.8185 23.4979 13.25 23.4979C13.6815 23.4979 14.0954 23.6694 14.4005 23.9745L21.375 30.9523V12.125C21.375 11.694 21.5462 11.2807 21.851 10.976C22.1557 10.6712 22.569 10.5 23 10.5Z" fill="#999999"/>
</svg>
