<svg width="45" height="36" viewBox="0 0 45 36" fill="none" xmlns="http://www.w3.org/2000/svg">
<path fill-rule="evenodd" clip-rule="evenodd" d="M22.5 25.875C22.9227 25.875 23.3281 25.7071 23.627 25.4082C23.9258 25.1093 24.0938 24.7039 24.0938 24.2812V5.81604L30.9341 12.6596C31.0823 12.8078 31.2582 12.9253 31.4518 13.0055C31.6454 13.0857 31.8529 13.127 32.0625 13.127C32.2721 13.127 32.4796 13.0857 32.6732 13.0055C32.8668 12.9253 33.0427 12.8078 33.1909 12.6596C33.3391 12.5114 33.4566 12.3355 33.5368 12.1419C33.617 11.9483 33.6583 11.7408 33.6583 11.5312C33.6583 11.3217 33.617 11.1142 33.5368 10.9206C33.4566 10.727 33.3391 10.551 33.1909 10.4029L23.6284 0.840355C23.4803 0.691935 23.3045 0.57418 23.1108 0.493834C22.9172 0.413489 22.7096 0.372131 22.5 0.372131C22.2904 0.372131 22.0828 0.413489 21.8892 0.493834C21.6955 0.57418 21.5197 0.691935 21.3716 0.840355L11.8091 10.4029C11.5099 10.7021 11.3417 11.108 11.3417 11.5312C11.3417 11.9545 11.5099 12.3603 11.8091 12.6596C12.1084 12.9589 12.5143 13.127 12.9375 13.127C13.3607 13.127 13.7666 12.9589 14.0659 12.6596L20.9062 5.81604V24.2812C20.9062 24.7039 21.0742 25.1093 21.373 25.4082C21.6719 25.7071 22.0773 25.875 22.5 25.875ZM0.1875 33.8437C0.1875 33.421 0.355412 33.0157 0.654298 32.7168C0.953185 32.4179 1.35856 32.25 1.78125 32.25H43.2188C43.6414 32.25 44.0468 32.4179 44.3457 32.7168C44.6446 33.0157 44.8125 33.421 44.8125 33.8437C44.8125 34.2664 44.6446 34.6718 44.3457 34.9707C44.0468 35.2696 43.6414 35.4375 43.2188 35.4375H1.78125C1.35856 35.4375 0.953185 35.2696 0.654298 34.9707C0.355412 34.6718 0.1875 34.2664 0.1875 33.8437Z" fill="#999999"/>
</svg>
